<svg width="201" height="205" viewBox="0 0 201 205" fill="none" xmlns="http://www.w3.org/2000/svg">
<g filter="url(#filter0_d)">
<path d="M165.921 130.184C153.505 162.245 116.603 178.14 83.4985 165.686C50.3944 153.232 33.6241 117.146 46.0411 85.0847C58.458 53.0236 102.108 73.7781 129.095 35.0949C160.265 10.9991 178.338 98.1228 165.921 130.184Z" fill="#EDE8E8"/>
<ellipse rx="9.52797" ry="9.24709" transform="matrix(0.981555 0.191179 -0.190719 0.981645 29.9182 141.39)" fill="#F5EFEF"/>
<ellipse rx="7.14597" ry="6.93532" transform="matrix(0.981555 0.191179 -0.190719 0.981645 49.622 167.368)" fill="#F5EFEF"/>
<path d="M161.198 164.605C160.688 167.226 158.051 169.02 155.205 168.466C152.36 167.912 150.586 165.258 151.095 162.638C151.605 160.017 154.242 158.223 157.088 158.777C159.933 159.331 161.707 161.985 161.198 164.605Z" stroke="#FEF9F9" stroke-width="4"/>
<g clip-path="url(#clip0)">
<path d="M130.815 133.73L122.655 122.223C122.614 122.165 122.562 122.118 122.516 122.073C121.358 123.221 120.038 124.269 118.598 125.194C117.159 126.119 115.641 126.892 114.075 127.482C114.115 127.541 114.141 127.606 114.182 127.664L122.318 139.189C123.929 141.463 127.143 142.087 129.481 140.584C131.822 139.079 132.421 136.006 130.815 133.73Z" fill="#27262B"/>
<path d="M123.57 91.9779C116.16 81.5055 101.357 78.6223 90.566 85.552C79.7661 92.4777 77.0125 106.645 84.4256 117.121C91.8395 127.594 106.646 130.477 117.436 123.55C128.226 116.62 130.977 102.451 123.57 91.9779ZM89.5111 113.859C84.0258 106.104 86.0659 95.6151 94.0535 90.4908C102.042 85.3611 113.004 87.4961 118.488 95.2465C123.969 102.998 121.931 113.475 113.947 118.616C105.963 123.727 94.9985 121.616 89.5111 113.859Z" fill="#27262B"/>
<path d="M96.2303 104.904C96.1132 102.863 94.5993 99.7679 92.7175 100.294C91.2295 100.692 91.0212 103.808 91.3126 105.732C92.5875 114.469 102.668 118.227 103.952 117.403C105.214 116.593 96.6967 112.983 96.2303 104.904Z" fill="#27262B"/>
</g>
</g>
<defs>
<filter id="filter0_d" x="0.399414" y="10.9375" width="199.476" height="193.375" filterUnits="userSpaceOnUse" color-interpolation-filters="sRGB">
<feFlood flood-opacity="0" result="BackgroundImageFix"/>
<feColorMatrix in="SourceAlpha" type="matrix" values="0 0 0 0 0 0 0 0 0 0 0 0 0 0 0 0 0 0 127 0"/>
<feOffset dx="5" dy="5"/>
<feGaussianBlur stdDeviation="12.5"/>
<feColorMatrix type="matrix" values="0 0 0 0 0 0 0 0 0 0 0 0 0 0 0 0 0 0 0.5 0"/>
<feBlend mode="normal" in2="BackgroundImageFix" result="effect1_dropShadow"/>
<feBlend mode="normal" in="SourceGraphic" in2="effect1_dropShadow" result="shape"/>
</filter>
<clipPath id="clip0">
<rect width="57.1678" height="54.6666" fill="white" transform="matrix(0.981555 0.191179 -0.190719 0.981645 85.0005 77.6943)"/>
</clipPath>
</defs>
</svg>
